<mxfile host="app.diagrams.net" modified="2022-03-02T11:36:16.788Z" agent="5.0 (Windows NT 10.0; Win64; x64) AppleWebKit/537.36 (KHTML, like Gecko) Chrome/98.0.4758.102 Safari/537.36 OPR/84.0.4316.21" etag="cVx23lT2v6ApW2fH2pST" version="16.6.4" type="github">
  <diagram id="R2lEEEUBdFMjLlhIrx00" name="Page-1">
    <mxGraphModel dx="2394" dy="1078" grid="1" gridSize="10" guides="1" tooltips="1" connect="1" arrows="1" fold="1" page="1" pageScale="1" pageWidth="850" pageHeight="1100" math="0" shadow="0" extFonts="Permanent Marker^https://fonts.googleapis.com/css?family=Permanent+Marker">
      <root>
        <mxCell id="0" />
        <mxCell id="1" parent="0" />
        <mxCell id="IAhGSMrXwPg0kfitmQvQ-77" value="" style="group" vertex="1" connectable="0" parent="1">
          <mxGeometry x="19" y="100" width="819.15" height="620" as="geometry" />
        </mxCell>
        <mxCell id="IAhGSMrXwPg0kfitmQvQ-63" value="" style="endArrow=none;html=1;rounded=0;" edge="1" parent="IAhGSMrXwPg0kfitmQvQ-77" source="IAhGSMrXwPg0kfitmQvQ-15">
          <mxGeometry width="50" height="50" relative="1" as="geometry">
            <mxPoint x="658.5139334862387" y="188.34848484848487" as="sourcePoint" />
            <mxPoint x="574.9080275229358" y="187.8787878787879" as="targetPoint" />
          </mxGeometry>
        </mxCell>
        <mxCell id="IAhGSMrXwPg0kfitmQvQ-64" value="" style="endArrow=none;html=1;rounded=0;exitX=0.25;exitY=1;exitDx=0;exitDy=0;" edge="1" parent="IAhGSMrXwPg0kfitmQvQ-77">
          <mxGeometry width="50" height="50" relative="1" as="geometry">
            <mxPoint x="402.05986238532114" y="190.69696969696972" as="sourcePoint" />
            <mxPoint x="402.05986238532114" y="275.2424242424243" as="targetPoint" />
          </mxGeometry>
        </mxCell>
        <mxCell id="IAhGSMrXwPg0kfitmQvQ-66" value="" style="endArrow=none;html=1;rounded=0;exitX=0.25;exitY=1;exitDx=0;exitDy=0;" edge="1" parent="IAhGSMrXwPg0kfitmQvQ-77">
          <mxGeometry width="50" height="50" relative="1" as="geometry">
            <mxPoint x="411.4537844036697" y="200.0909090909091" as="sourcePoint" />
            <mxPoint x="411.4537844036697" y="284.6363636363636" as="targetPoint" />
          </mxGeometry>
        </mxCell>
        <mxCell id="IAhGSMrXwPg0kfitmQvQ-55" value="Catat" style="rhombus;whiteSpace=wrap;html=1;fillColor=#FFE6CC;" vertex="1" parent="IAhGSMrXwPg0kfitmQvQ-77">
          <mxGeometry x="359.3175172018349" y="263.03030303030306" width="93.93922018348626" height="82.66666666666667" as="geometry" />
        </mxCell>
        <mxCell id="IAhGSMrXwPg0kfitmQvQ-15" value="Film" style="rounded=0;whiteSpace=wrap;html=1;fontStyle=1;fillColor=#FFFF99;" vertex="1" parent="IAhGSMrXwPg0kfitmQvQ-77">
          <mxGeometry x="650.0594036697248" y="169.0909090909091" width="93.93922018348626" height="37.57575757575758" as="geometry" />
        </mxCell>
        <mxCell id="IAhGSMrXwPg0kfitmQvQ-16" value="&lt;u&gt;&lt;b&gt;Kode_film&lt;/b&gt;&lt;/u&gt;" style="ellipse;whiteSpace=wrap;html=1;rounded=0;strokeColor=#000000;fillColor=#E6FFCC;" vertex="1" parent="IAhGSMrXwPg0kfitmQvQ-77">
          <mxGeometry x="650.0594036697248" y="84.54545454545455" width="93.93922018348626" height="46.969696969696976" as="geometry" />
        </mxCell>
        <mxCell id="IAhGSMrXwPg0kfitmQvQ-17" value="" style="endArrow=none;html=1;rounded=0;entryX=0.5;entryY=1;entryDx=0;entryDy=0;exitX=0.5;exitY=0;exitDx=0;exitDy=0;" edge="1" source="IAhGSMrXwPg0kfitmQvQ-15" target="IAhGSMrXwPg0kfitmQvQ-16" parent="IAhGSMrXwPg0kfitmQvQ-77">
          <mxGeometry width="50" height="50" relative="1" as="geometry">
            <mxPoint x="725.2107798165139" y="187.8787878787879" as="sourcePoint" />
            <mxPoint x="772.180389908257" y="140.9090909090909" as="targetPoint" />
          </mxGeometry>
        </mxCell>
        <mxCell id="IAhGSMrXwPg0kfitmQvQ-18" value="Jenis_film" style="ellipse;whiteSpace=wrap;html=1;rounded=0;" vertex="1" parent="IAhGSMrXwPg0kfitmQvQ-77">
          <mxGeometry x="650.0594036697248" y="310.00000000000006" width="93.93922018348626" height="46.969696969696976" as="geometry" />
        </mxCell>
        <mxCell id="IAhGSMrXwPg0kfitmQvQ-19" value="" style="endArrow=none;html=1;rounded=0;exitX=0.5;exitY=1;exitDx=0;exitDy=0;entryX=0.5;entryY=0;entryDx=0;entryDy=0;" edge="1" source="IAhGSMrXwPg0kfitmQvQ-15" target="IAhGSMrXwPg0kfitmQvQ-18" parent="IAhGSMrXwPg0kfitmQvQ-77">
          <mxGeometry width="50" height="50" relative="1" as="geometry">
            <mxPoint x="697.0290137614679" y="328.7878787878788" as="sourcePoint" />
            <mxPoint x="697.0290137614679" y="244.24242424242425" as="targetPoint" />
          </mxGeometry>
        </mxCell>
        <mxCell id="IAhGSMrXwPg0kfitmQvQ-20" value="Judul" style="ellipse;whiteSpace=wrap;html=1;rounded=0;" vertex="1" parent="IAhGSMrXwPg0kfitmQvQ-77">
          <mxGeometry x="574.9080275229358" y="263.03030303030306" width="93.93922018348626" height="46.969696969696976" as="geometry" />
        </mxCell>
        <mxCell id="IAhGSMrXwPg0kfitmQvQ-21" value="" style="endArrow=none;html=1;rounded=0;exitX=0.25;exitY=1;exitDx=0;exitDy=0;entryX=0.5;entryY=0;entryDx=0;entryDy=0;" edge="1" source="IAhGSMrXwPg0kfitmQvQ-15" parent="IAhGSMrXwPg0kfitmQvQ-77" target="IAhGSMrXwPg0kfitmQvQ-20">
          <mxGeometry width="50" height="50" relative="1" as="geometry">
            <mxPoint x="584.3019495412844" y="206.66666666666669" as="sourcePoint" />
            <mxPoint x="584.3019495412844" y="253.63636363636365" as="targetPoint" />
          </mxGeometry>
        </mxCell>
        <mxCell id="IAhGSMrXwPg0kfitmQvQ-24" value="" style="endArrow=none;html=1;rounded=0;exitX=0.75;exitY=1;exitDx=0;exitDy=0;entryX=0.5;entryY=0;entryDx=0;entryDy=0;" edge="1" source="IAhGSMrXwPg0kfitmQvQ-15" target="IAhGSMrXwPg0kfitmQvQ-25" parent="IAhGSMrXwPg0kfitmQvQ-77">
          <mxGeometry width="50" height="50" relative="1" as="geometry">
            <mxPoint x="786.2712729357798" y="206.66666666666669" as="sourcePoint" />
            <mxPoint x="809.7560779816515" y="244.24242424242425" as="targetPoint" />
          </mxGeometry>
        </mxCell>
        <mxCell id="IAhGSMrXwPg0kfitmQvQ-25" value="Tgl_terbit" style="ellipse;whiteSpace=wrap;html=1;rounded=0;" vertex="1" parent="IAhGSMrXwPg0kfitmQvQ-77">
          <mxGeometry x="725.2107798165139" y="263.03030303030306" width="93.93922018348626" height="46.969696969696976" as="geometry" />
        </mxCell>
        <mxCell id="IAhGSMrXwPg0kfitmQvQ-69" value="" style="endArrow=none;html=1;rounded=0;" edge="1" parent="IAhGSMrXwPg0kfitmQvQ-77" source="IAhGSMrXwPg0kfitmQvQ-55" target="IAhGSMrXwPg0kfitmQvQ-1">
          <mxGeometry width="50" height="50" relative="1" as="geometry">
            <mxPoint x="420.8477064220184" y="209.4848484848485" as="sourcePoint" />
            <mxPoint x="420.8477064220184" y="294.03030303030306" as="targetPoint" />
          </mxGeometry>
        </mxCell>
        <mxCell id="IAhGSMrXwPg0kfitmQvQ-48" value="Proses" style="rhombus;whiteSpace=wrap;html=1;fillColor=#FFE6CC;" vertex="1" parent="IAhGSMrXwPg0kfitmQvQ-77">
          <mxGeometry x="216.06020642201835" y="146.54545454545456" width="93.93922018348626" height="82.66666666666667" as="geometry" />
        </mxCell>
        <mxCell id="IAhGSMrXwPg0kfitmQvQ-70" value="" style="endArrow=none;html=1;rounded=0;entryX=1;entryY=0.5;entryDx=0;entryDy=0;" edge="1" parent="IAhGSMrXwPg0kfitmQvQ-77" source="IAhGSMrXwPg0kfitmQvQ-35" target="IAhGSMrXwPg0kfitmQvQ-48">
          <mxGeometry width="50" height="50" relative="1" as="geometry">
            <mxPoint x="360.7266055045872" y="187.8787878787879" as="sourcePoint" />
            <mxPoint x="93.93922018348626" y="187.8787878787879" as="targetPoint" />
          </mxGeometry>
        </mxCell>
        <mxCell id="IAhGSMrXwPg0kfitmQvQ-51" value="" style="endArrow=none;html=1;rounded=0;entryX=0.7;entryY=0.386;entryDx=0;entryDy=0;entryPerimeter=0;" edge="1" parent="IAhGSMrXwPg0kfitmQvQ-77">
          <mxGeometry width="50" height="50" relative="1" as="geometry">
            <mxPoint x="558.9383600917432" y="193.5621212121212" as="sourcePoint" />
            <mxPoint x="436.81737385321105" y="193.53206060606058" as="targetPoint" />
          </mxGeometry>
        </mxCell>
        <mxCell id="IAhGSMrXwPg0kfitmQvQ-50" value="" style="endArrow=none;html=1;rounded=0;entryX=0.7;entryY=0.386;entryDx=0;entryDy=0;entryPerimeter=0;" edge="1" parent="IAhGSMrXwPg0kfitmQvQ-77">
          <mxGeometry width="50" height="50" relative="1" as="geometry">
            <mxPoint x="549.5444380733945" y="181.32181818181817" as="sourcePoint" />
            <mxPoint x="427.4234518348624" y="181.29175757575754" as="targetPoint" />
          </mxGeometry>
        </mxCell>
        <mxCell id="IAhGSMrXwPg0kfitmQvQ-42" value="" style="endArrow=none;html=1;rounded=0;entryX=0.5;entryY=1;entryDx=0;entryDy=0;" edge="1" target="IAhGSMrXwPg0kfitmQvQ-43" parent="IAhGSMrXwPg0kfitmQvQ-77">
          <mxGeometry width="50" height="50" relative="1" as="geometry">
            <mxPoint x="432.1204128440367" y="169.0909090909091" as="sourcePoint" />
            <mxPoint x="520.4232798165137" y="244.24242424242425" as="targetPoint" />
          </mxGeometry>
        </mxCell>
        <mxCell id="IAhGSMrXwPg0kfitmQvQ-36" value="&lt;u&gt;&lt;b&gt;Id_transaksi&lt;/b&gt;&lt;/u&gt;" style="ellipse;whiteSpace=wrap;html=1;rounded=0;strokeColor=#000000;fillColor=#E6FFCC;" vertex="1" parent="IAhGSMrXwPg0kfitmQvQ-77">
          <mxGeometry x="360.7266055045872" width="93.93922018348626" height="46.969696969696976" as="geometry" />
        </mxCell>
        <mxCell id="IAhGSMrXwPg0kfitmQvQ-37" value="" style="endArrow=none;html=1;rounded=0;entryX=0.5;entryY=1;entryDx=0;entryDy=0;exitX=0.5;exitY=0;exitDx=0;exitDy=0;" edge="1" source="IAhGSMrXwPg0kfitmQvQ-35" target="IAhGSMrXwPg0kfitmQvQ-36" parent="IAhGSMrXwPg0kfitmQvQ-77">
          <mxGeometry width="50" height="50" relative="1" as="geometry">
            <mxPoint x="435.8779816513762" y="187.8787878787879" as="sourcePoint" />
            <mxPoint x="482.84759174311927" y="140.9090909090909" as="targetPoint" />
          </mxGeometry>
        </mxCell>
        <mxCell id="IAhGSMrXwPg0kfitmQvQ-35" value="Transaksi" style="rounded=0;whiteSpace=wrap;html=1;fontStyle=1;fillColor=#FFFF99;" vertex="1" parent="IAhGSMrXwPg0kfitmQvQ-77">
          <mxGeometry x="360.7266055045872" y="169.0909090909091" width="93.93922018348626" height="37.57575757575758" as="geometry" />
        </mxCell>
        <mxCell id="IAhGSMrXwPg0kfitmQvQ-43" value="Tgl_kembali" style="ellipse;whiteSpace=wrap;html=1;rounded=0;" vertex="1" parent="IAhGSMrXwPg0kfitmQvQ-77">
          <mxGeometry x="427.4234518348624" y="56.363636363636374" width="93.93922018348626" height="46.969696969696976" as="geometry" />
        </mxCell>
        <mxCell id="IAhGSMrXwPg0kfitmQvQ-40" value="Tgl_sewa" style="ellipse;whiteSpace=wrap;html=1;rounded=0;" vertex="1" parent="IAhGSMrXwPg0kfitmQvQ-77">
          <mxGeometry x="291.2115825688074" y="56.363636363636374" width="93.93922018348626" height="46.969696969696976" as="geometry" />
        </mxCell>
        <mxCell id="IAhGSMrXwPg0kfitmQvQ-41" value="" style="endArrow=none;html=1;rounded=0;entryX=0.5;entryY=1;entryDx=0;entryDy=0;" edge="1" source="IAhGSMrXwPg0kfitmQvQ-35" target="IAhGSMrXwPg0kfitmQvQ-40" parent="IAhGSMrXwPg0kfitmQvQ-77">
          <mxGeometry width="50" height="50" relative="1" as="geometry">
            <mxPoint x="294.9691513761468" y="206.66666666666669" as="sourcePoint" />
            <mxPoint x="294.9691513761468" y="253.63636363636365" as="targetPoint" />
          </mxGeometry>
        </mxCell>
        <mxCell id="IAhGSMrXwPg0kfitmQvQ-61" value="Sewa" style="rhombus;whiteSpace=wrap;html=1;fillColor=#FFE6CC;" vertex="1" parent="IAhGSMrXwPg0kfitmQvQ-77">
          <mxGeometry x="507.27178899082577" y="146.54545454545456" width="93.93922018348626" height="82.66666666666667" as="geometry" />
        </mxCell>
        <mxCell id="IAhGSMrXwPg0kfitmQvQ-71" value="M" style="text;html=1;strokeColor=none;fillColor=none;align=center;verticalAlign=middle;whiteSpace=wrap;rounded=0;" vertex="1" parent="IAhGSMrXwPg0kfitmQvQ-77">
          <mxGeometry x="358.84782110091743" y="206.66666666666669" width="56.36353211009175" height="28.181818181818187" as="geometry" />
        </mxCell>
        <mxCell id="IAhGSMrXwPg0kfitmQvQ-72" value="1" style="text;html=1;strokeColor=none;fillColor=none;align=center;verticalAlign=middle;whiteSpace=wrap;rounded=0;" vertex="1" parent="IAhGSMrXwPg0kfitmQvQ-77">
          <mxGeometry x="364.4841743119266" y="350.3939393939394" width="56.36353211009175" height="28.181818181818187" as="geometry" />
        </mxCell>
        <mxCell id="IAhGSMrXwPg0kfitmQvQ-73" value="M" style="text;html=1;strokeColor=none;fillColor=none;align=center;verticalAlign=middle;whiteSpace=wrap;rounded=0;" vertex="1" parent="IAhGSMrXwPg0kfitmQvQ-77">
          <mxGeometry x="610.6049311926606" y="163.45454545454547" width="56.36353211009175" height="28.181818181818187" as="geometry" />
        </mxCell>
        <mxCell id="IAhGSMrXwPg0kfitmQvQ-74" value="M" style="text;html=1;strokeColor=none;fillColor=none;align=center;verticalAlign=middle;whiteSpace=wrap;rounded=0;" vertex="1" parent="IAhGSMrXwPg0kfitmQvQ-77">
          <mxGeometry x="437.7567660550459" y="157.8181818181818" width="56.36353211009175" height="28.181818181818187" as="geometry" />
        </mxCell>
        <mxCell id="IAhGSMrXwPg0kfitmQvQ-75" value="M" style="text;html=1;strokeColor=none;fillColor=none;align=center;verticalAlign=middle;whiteSpace=wrap;rounded=0;" vertex="1" parent="IAhGSMrXwPg0kfitmQvQ-77">
          <mxGeometry x="319.3933486238532" y="158.75757575757575" width="56.36353211009175" height="28.181818181818187" as="geometry" />
        </mxCell>
        <mxCell id="IAhGSMrXwPg0kfitmQvQ-26" value="Member" style="rounded=0;whiteSpace=wrap;html=1;fontStyle=1;fillColor=#FFFF99;" vertex="1" parent="IAhGSMrXwPg0kfitmQvQ-77">
          <mxGeometry x="75.15137614678899" y="169.0909090909091" width="93.93922018348626" height="37.57575757575758" as="geometry" />
        </mxCell>
        <mxCell id="IAhGSMrXwPg0kfitmQvQ-49" value="" style="endArrow=none;html=1;rounded=0;entryX=1;entryY=0.5;entryDx=0;entryDy=0;startArrow=none;" edge="1" parent="IAhGSMrXwPg0kfitmQvQ-77" source="IAhGSMrXwPg0kfitmQvQ-48" target="IAhGSMrXwPg0kfitmQvQ-26">
          <mxGeometry width="50" height="50" relative="1" as="geometry">
            <mxPoint x="366.36295871559633" y="244.24242424242425" as="sourcePoint" />
            <mxPoint x="413.3325688073395" y="197.27272727272728" as="targetPoint" />
          </mxGeometry>
        </mxCell>
        <mxCell id="IAhGSMrXwPg0kfitmQvQ-27" value="&lt;u&gt;&lt;b&gt;Id_member&lt;/b&gt;&lt;/u&gt;" style="ellipse;whiteSpace=wrap;html=1;rounded=0;strokeColor=#000000;fillColor=#E6FFCC;" vertex="1" parent="IAhGSMrXwPg0kfitmQvQ-77">
          <mxGeometry x="75.15137614678899" y="84.54545454545455" width="93.93922018348626" height="46.969696969696976" as="geometry" />
        </mxCell>
        <mxCell id="IAhGSMrXwPg0kfitmQvQ-28" value="" style="endArrow=none;html=1;rounded=0;entryX=0.5;entryY=1;entryDx=0;entryDy=0;exitX=0.5;exitY=0;exitDx=0;exitDy=0;" edge="1" source="IAhGSMrXwPg0kfitmQvQ-26" target="IAhGSMrXwPg0kfitmQvQ-27" parent="IAhGSMrXwPg0kfitmQvQ-77">
          <mxGeometry width="50" height="50" relative="1" as="geometry">
            <mxPoint x="150.30275229357798" y="187.8787878787879" as="sourcePoint" />
            <mxPoint x="197.27236238532112" y="140.9090909090909" as="targetPoint" />
          </mxGeometry>
        </mxCell>
        <mxCell id="IAhGSMrXwPg0kfitmQvQ-29" value="Alamat" style="ellipse;whiteSpace=wrap;html=1;rounded=0;" vertex="1" parent="IAhGSMrXwPg0kfitmQvQ-77">
          <mxGeometry x="75.15137614678899" y="310.00000000000006" width="93.93922018348626" height="46.969696969696976" as="geometry" />
        </mxCell>
        <mxCell id="IAhGSMrXwPg0kfitmQvQ-30" value="" style="endArrow=none;html=1;rounded=0;exitX=0.5;exitY=1;exitDx=0;exitDy=0;entryX=0.5;entryY=0;entryDx=0;entryDy=0;" edge="1" source="IAhGSMrXwPg0kfitmQvQ-26" target="IAhGSMrXwPg0kfitmQvQ-29" parent="IAhGSMrXwPg0kfitmQvQ-77">
          <mxGeometry width="50" height="50" relative="1" as="geometry">
            <mxPoint x="122.12098623853213" y="328.7878787878788" as="sourcePoint" />
            <mxPoint x="122.12098623853213" y="244.24242424242425" as="targetPoint" />
          </mxGeometry>
        </mxCell>
        <mxCell id="IAhGSMrXwPg0kfitmQvQ-31" value="Nama" style="ellipse;whiteSpace=wrap;html=1;rounded=0;" vertex="1" parent="IAhGSMrXwPg0kfitmQvQ-77">
          <mxGeometry y="263.03030303030306" width="93.93922018348626" height="46.969696969696976" as="geometry" />
        </mxCell>
        <mxCell id="IAhGSMrXwPg0kfitmQvQ-32" value="" style="endArrow=none;html=1;rounded=0;exitX=0.25;exitY=1;exitDx=0;exitDy=0;entryX=0.5;entryY=0;entryDx=0;entryDy=0;" edge="1" source="IAhGSMrXwPg0kfitmQvQ-26" target="IAhGSMrXwPg0kfitmQvQ-31" parent="IAhGSMrXwPg0kfitmQvQ-77">
          <mxGeometry width="50" height="50" relative="1" as="geometry">
            <mxPoint x="9.393922018348624" y="206.66666666666669" as="sourcePoint" />
            <mxPoint x="9.393922018348624" y="253.63636363636365" as="targetPoint" />
          </mxGeometry>
        </mxCell>
        <mxCell id="IAhGSMrXwPg0kfitmQvQ-33" value="" style="endArrow=none;html=1;rounded=0;exitX=0.75;exitY=1;exitDx=0;exitDy=0;entryX=0.5;entryY=0;entryDx=0;entryDy=0;" edge="1" source="IAhGSMrXwPg0kfitmQvQ-26" target="IAhGSMrXwPg0kfitmQvQ-34" parent="IAhGSMrXwPg0kfitmQvQ-77">
          <mxGeometry width="50" height="50" relative="1" as="geometry">
            <mxPoint x="211.36324541284407" y="206.66666666666669" as="sourcePoint" />
            <mxPoint x="234.8480504587156" y="244.24242424242425" as="targetPoint" />
          </mxGeometry>
        </mxCell>
        <mxCell id="IAhGSMrXwPg0kfitmQvQ-34" value="Telp" style="ellipse;whiteSpace=wrap;html=1;rounded=0;" vertex="1" parent="IAhGSMrXwPg0kfitmQvQ-77">
          <mxGeometry x="150.30275229357798" y="263.03030303030306" width="93.93922018348626" height="46.969696969696976" as="geometry" />
        </mxCell>
        <mxCell id="IAhGSMrXwPg0kfitmQvQ-1" value="Pegawai" style="rounded=0;whiteSpace=wrap;html=1;fontStyle=1;fillColor=#FFFF99;" vertex="1" parent="IAhGSMrXwPg0kfitmQvQ-77">
          <mxGeometry x="358.84782110091743" y="375.7575757575758" width="93.93922018348626" height="37.57575757575758" as="geometry" />
        </mxCell>
        <mxCell id="IAhGSMrXwPg0kfitmQvQ-2" value="&lt;u&gt;&lt;b&gt;No. pegawai&lt;/b&gt;&lt;/u&gt;" style="ellipse;whiteSpace=wrap;html=1;rounded=0;strokeColor=#000000;fillColor=#E6FFCC;" vertex="1" parent="IAhGSMrXwPg0kfitmQvQ-77">
          <mxGeometry x="358.84782110091743" y="573.030303030303" width="93.93922018348626" height="46.969696969696976" as="geometry" />
        </mxCell>
        <mxCell id="IAhGSMrXwPg0kfitmQvQ-4" value="" style="endArrow=none;html=1;rounded=0;" edge="1" parent="IAhGSMrXwPg0kfitmQvQ-77" source="IAhGSMrXwPg0kfitmQvQ-1" target="IAhGSMrXwPg0kfitmQvQ-2">
          <mxGeometry width="50" height="50" relative="1" as="geometry">
            <mxPoint x="403.9386467889908" y="450.909090909091" as="sourcePoint" />
            <mxPoint x="480.9688073394496" y="347.5757575757576" as="targetPoint" />
          </mxGeometry>
        </mxCell>
        <mxCell id="IAhGSMrXwPg0kfitmQvQ-7" value="Alamat" style="ellipse;whiteSpace=wrap;html=1;rounded=0;" vertex="1" parent="IAhGSMrXwPg0kfitmQvQ-77">
          <mxGeometry x="302.48428899082575" y="516.6666666666667" width="93.93922018348626" height="46.969696969696976" as="geometry" />
        </mxCell>
        <mxCell id="IAhGSMrXwPg0kfitmQvQ-8" value="" style="endArrow=none;html=1;rounded=0;exitX=0.389;exitY=1.027;exitDx=0;exitDy=0;exitPerimeter=0;entryX=0.5;entryY=0;entryDx=0;entryDy=0;" edge="1" target="IAhGSMrXwPg0kfitmQvQ-7" parent="IAhGSMrXwPg0kfitmQvQ-77" source="IAhGSMrXwPg0kfitmQvQ-1">
          <mxGeometry width="50" height="50" relative="1" as="geometry">
            <mxPoint x="405.8174311926606" y="535.4545454545455" as="sourcePoint" />
            <mxPoint x="405.8174311926606" y="450.909090909091" as="targetPoint" />
          </mxGeometry>
        </mxCell>
        <mxCell id="IAhGSMrXwPg0kfitmQvQ-9" value="Nama" style="ellipse;whiteSpace=wrap;html=1;rounded=0;" vertex="1" parent="IAhGSMrXwPg0kfitmQvQ-77">
          <mxGeometry x="246.12075688073398" y="460.3030303030303" width="93.93922018348626" height="46.969696969696976" as="geometry" />
        </mxCell>
        <mxCell id="IAhGSMrXwPg0kfitmQvQ-10" value="" style="endArrow=none;html=1;rounded=0;exitX=0.1;exitY=1;exitDx=0;exitDy=0;exitPerimeter=0;entryX=0.5;entryY=0;entryDx=0;entryDy=0;" edge="1" target="IAhGSMrXwPg0kfitmQvQ-9" parent="IAhGSMrXwPg0kfitmQvQ-77" source="IAhGSMrXwPg0kfitmQvQ-1">
          <mxGeometry width="50" height="50" relative="1" as="geometry">
            <mxPoint x="293.09036697247706" y="413.33333333333337" as="sourcePoint" />
            <mxPoint x="293.09036697247706" y="460.3030303030303" as="targetPoint" />
          </mxGeometry>
        </mxCell>
        <mxCell id="IAhGSMrXwPg0kfitmQvQ-11" value="No. telp" style="ellipse;whiteSpace=wrap;html=1;rounded=0;" vertex="1" parent="IAhGSMrXwPg0kfitmQvQ-77">
          <mxGeometry x="480.9688073394496" y="460.3030303030303" width="93.93922018348626" height="46.969696969696976" as="geometry" />
        </mxCell>
        <mxCell id="IAhGSMrXwPg0kfitmQvQ-12" value="" style="endArrow=none;html=1;rounded=0;entryX=0.5;entryY=0;entryDx=0;entryDy=0;" edge="1" target="IAhGSMrXwPg0kfitmQvQ-11" parent="IAhGSMrXwPg0kfitmQvQ-77" source="IAhGSMrXwPg0kfitmQvQ-1">
          <mxGeometry width="50" height="50" relative="1" as="geometry">
            <mxPoint x="617.1806766055047" y="413.33333333333337" as="sourcePoint" />
            <mxPoint x="527.9384174311926" y="450.909090909091" as="targetPoint" />
          </mxGeometry>
        </mxCell>
        <mxCell id="IAhGSMrXwPg0kfitmQvQ-13" value="" style="endArrow=none;html=1;rounded=0;exitX=0.607;exitY=1.005;exitDx=0;exitDy=0;exitPerimeter=0;entryX=0.5;entryY=0;entryDx=0;entryDy=0;" edge="1" target="IAhGSMrXwPg0kfitmQvQ-14" parent="IAhGSMrXwPg0kfitmQvQ-77" source="IAhGSMrXwPg0kfitmQvQ-1">
          <mxGeometry width="50" height="50" relative="1" as="geometry">
            <mxPoint x="495.0596903669725" y="413.33333333333337" as="sourcePoint" />
            <mxPoint x="518.5444954128441" y="450.909090909091" as="targetPoint" />
          </mxGeometry>
        </mxCell>
        <mxCell id="IAhGSMrXwPg0kfitmQvQ-14" value="Gender" style="ellipse;whiteSpace=wrap;html=1;rounded=0;" vertex="1" parent="IAhGSMrXwPg0kfitmQvQ-77">
          <mxGeometry x="415.2113532110092" y="516.6666666666667" width="93.93922018348626" height="46.969696969696976" as="geometry" />
        </mxCell>
        <mxCell id="IAhGSMrXwPg0kfitmQvQ-76" value="1" style="text;html=1;strokeColor=none;fillColor=none;align=center;verticalAlign=middle;whiteSpace=wrap;rounded=0;" vertex="1" parent="IAhGSMrXwPg0kfitmQvQ-77">
          <mxGeometry x="152.18153669724774" y="161.57575757575756" width="56.36353211009175" height="28.181818181818187" as="geometry" />
        </mxCell>
      </root>
    </mxGraphModel>
  </diagram>
</mxfile>
